# xmcd
#
# Track frame offsets:
#	150
#	16896
#	34062
#	49958
#	64530
#	78747
#	96888
#	112365
#	125939
#	139117
#	155720
#	173531
#
# Disc length: 2500
#
# Revision: 2
# Processed by: cddbd v1.5.1PL0 Copyright (c) Steve Scherf et al.
# Submitted via: audiograbber 1.83.01
# Normalized: r1:TRMNUM
#
DISCID=aa09c20c
DTITLE=Tropykalia - Volume 05
DYEAR=2004
DGENRE=
TTITLE0=Nao Da Prazer
TTITLE1=Vida Vazia
TTITLE2=PP Mete o pe Na Bunda Dele-Sendo Assim
TTITLE3=Nao Se Esquecera
TTITLE4=Vem Me Ver
TTITLE5=Nao Posso Lutar Contra Esse Amor
TTITLE6=Amar Voce
TTITLE7=Vem Dancar Comigo
TTITLE8=Pense Bem
TTITLE9=Sonho Blue
TTITLE10=Voce e Mais Que Paixao
TTITLE11=Feliz
EXTD=
EXTT0=
EXTT1=
EXTT2=
EXTT3=
EXTT4=
EXTT5=
EXTT6=
EXTT7=
EXTT8=
EXTT9=
EXTT10=
EXTT11=
PLAYORDER=
